<?xml version="1.0" encoding="utf-8"?>
<!-- Generator: Adobe Illustrator 24.3.0, SVG Export Plug-In . SVG Version: 6.00 Build 0)  -->
<svg version="1.1" id="Layer_1" xmlns="http://www.w3.org/2000/svg" xmlns:xlink="http://www.w3.org/1999/xlink" x="0px" y="0px"
	 viewBox="0 0 180.6 102.1" style="enable-background:new 0 0 180.6 102.1;" xml:space="preserve">
<style type="text/css">
	.st0{fill:#B3B3B3;}
	.st1{fill:#3690C0;}
</style>
<rect x="107.5" class="st0" width="36.4" height="18.3"/>
<rect x="107.5" y="27.3" class="st0" width="54.8" height="18.3"/>
<rect x="107.5" y="54.7" class="st0" width="73.1" height="18.3"/>
<path class="st1" d="M75,102H56.8c-0.5-25.8,20.8-47.1,46.2-47.1v18.3C87.7,73.2,74.6,86.3,75,102"/>
<path class="st1" d="M46.2,102.1H28c0-40.7,33.5-74.4,74.9-74.6v18.2C71.6,46,46.2,71.5,46.2,102.1"/>
<path class="st1" d="M18.1,102.1H0C0,45,46.3,0.3,103,0.2v18.1C56.3,18.4,18.1,55,18.1,102.1"/>
</svg>
